solid Part1
  facet normal 0 -1 0
    outer loop
      vertex 1000 0 1000
      vertex 1000 0 3000
      vertex 0 0 1000
    endloop
  endfacet
  facet normal 0 -1 0
    outer loop
      vertex 0 0 1000
      vertex 1000 0 3000
      vertex 0 0 3000
    endloop
  endfacet
  facet normal 1 -0 0
    outer loop
      vertex 1000 0 800
      vertex 1000 0 0
      vertex 1000 500 800
    endloop
  endfacet
  facet normal 1 0 0
    outer loop
      vertex 1000 500 800
      vertex 1000 0 0
      vertex 1000 1000 0
    endloop
  endfacet
  facet normal 1 -0 0
    outer loop
      vertex 1000 500 800
      vertex 1000 1000 0
      vertex 1000 500 1000
    endloop
  endfacet
  facet normal 1 -0 0
    outer loop
      vertex 1000 500 1000
      vertex 1000 1000 0
      vertex 1000 1000 3000
    endloop
  endfacet
  facet normal 1 0 -0
    outer loop
      vertex 1000 500 1000
      vertex 1000 1000 3000
      vertex 1000 0 1000
    endloop
  endfacet
  facet normal 1 0 0
    outer loop
      vertex 1000 0 1000
      vertex 1000 1000 3000
      vertex 1000 0 3000
    endloop
  endfacet
  facet normal -0 1 0
    outer loop
      vertex 0 1000 3000
      vertex 1000 1000 3000
      vertex 0 1000 0
    endloop
  endfacet
  facet normal 0 1 0
    outer loop
      vertex 0 1000 0
      vertex 1000 1000 3000
      vertex 1000 1000 0
    endloop
  endfacet
  facet normal -1 0 0
    outer loop
      vertex 0 500 1000
      vertex 0 0 1000
      vertex 0 0 3000
    endloop
  endfacet
  facet normal -1 0 0
    outer loop
      vertex 0 1000 0
      vertex 0 0 0
      vertex 0 0 800
    endloop
  endfacet
  facet normal -1 0 0
    outer loop
      vertex 0 0 800
      vertex 0 500 800
      vertex 0 1000 0
    endloop
  endfacet
  facet normal -1 0 0
    outer loop
      vertex 0 1000 0
      vertex 0 500 800
      vertex 0 500 1000
    endloop
  endfacet
  facet normal -1 0 0
    outer loop
      vertex 0 1000 0
      vertex 0 500 1000
      vertex 0 1000 3000
    endloop
  endfacet
  facet normal -1 -0 0
    outer loop
      vertex 0 1000 3000
      vertex 0 500 1000
      vertex 0 0 3000
    endloop
  endfacet
  facet normal 0 -1 0
    outer loop
      vertex 0 0 800
      vertex 0 0 0
      vertex 1000 0 800
    endloop
  endfacet
  facet normal 0 -1 -0
    outer loop
      vertex 1000 0 800
      vertex 0 0 0
      vertex 1000 0 0
    endloop
  endfacet
  facet normal 0 0 -1
    outer loop
      vertex 0 500 1000
      vertex 1000 500 1000
      vertex 0 0 1000
    endloop
  endfacet
  facet normal 0 0 -1
    outer loop
      vertex 0 0 1000
      vertex 1000 500 1000
      vertex 1000 0 1000
    endloop
  endfacet
  facet normal 0 0 1
    outer loop
      vertex 1000 500 800
      vertex 0 500 800
      vertex 1000 0 800
    endloop
  endfacet
  facet normal 0 0 1
    outer loop
      vertex 1000 0 800
      vertex 0 500 800
      vertex 0 0 800
    endloop
  endfacet
  facet normal 0 -1 0
    outer loop
      vertex 1000 500 800
      vertex 1000 500 1000
      vertex 0 500 800
    endloop
  endfacet
  facet normal 0 -1 0
    outer loop
      vertex 0 500 800
      vertex 1000 500 1000
      vertex 0 500 1000
    endloop
  endfacet
endsolid Part1
